<?xml version="1.0"?>
<svg xmlns="http://www.w3.org/2000/svg" xmlns:xlink="http://www.w3.org/1999/xlink" id="Layer_1" data-name="Layer 1" viewBox="0 0 948.23 948.23">
  <defs>
    <style>.cls-1{stroke:#a86817;stroke-width:3px;fill:url(#radial-gradient);}.cls-1,.cls-2,.cls-3,.cls-4,.cls-5,.cls-7,.cls-8{stroke-miterlimit:31.51;}.cls-2,.cls-3,.cls-7{fill:none;}.cls-2{stroke:#231f20;stroke-width:12px;}.cls-3{stroke:#6d28d9;}.cls-3,.cls-5{stroke-width:70.89px;}.cls-4,.cls-8{fill:#252525;stroke:#252525;}.cls-4{stroke-width:78.77px;}.cls-5{fill:#f5f5f5;stroke:#f5f5f5;}.cls-6{fill:#069447;}.cls-7{stroke:#e50000;stroke-width:39.38px;}.cls-8{stroke-width:30px;}</style>
    <radialGradient id="radial-gradient" cx="472.66" cy="475.38" r="472.61" gradientTransform="matrix(1, 0, 0, -1, 1.45, 949.49)" gradientUnits="userSpaceOnUse">
      <stop offset="0.73" stop-color="#e1b372"/>
      <stop offset="1" stop-color="#f4ac53"/>
    </radialGradient>
  </defs>
  <rect class="cls-1" x="1.5" y="1.5" width="945.23" height="945.23" rx="141.78"/>
  <line class="cls-2" x1="1.5" y1="671.04" x2="946.73" y2="671.04"/>
  <line class="cls-2" x1="277.19" y1="946.73" x2="277.19" y2="1.5"/>
  <line class="cls-2" x1="671.04" y1="946.73" x2="671.04" y2="1.5"/>
  <line class="cls-2" x1="1.5" y1="279.24" x2="946.73" y2="279.24"/>
  <circle class="cls-3" cx="671.04" cy="279.24" r="157.54"/>
  <circle class="cls-4" cx="277.19" cy="671.04" r="157.54"/>
  <circle class="cls-5" cx="671.04" cy="671.04" r="157.54"/>
  <path class="cls-6" d="M273.56,468.86q-65.25,0-100.69-35t-35.45-98h74.13q0,31.67,16.58,49.2t46.78,17.53q30.45,0,47-17.41t16.58-49.32V89h71.18V335.94q0,63.3-36,98.12T273.56,468.86ZM250.91,153.14V89H376.54v64.1Z" transform="translate(1.45 1.49)"/>
  <path class="cls-7" d="M582.94,582.9l173.3,173.3m0-173.3L582.94,756.2" transform="translate(1.45 1.49)"/>
  <circle stroke="none" fill="#252525" cx="671.04" cy="279.24" r="20.4px"/>
</svg>
