<?xml version="1.0" encoding="utf-8"?>
<!-- Generator: Adobe Illustrator 25.3.1, SVG Export Plug-In . SVG Version: 6.00 Build 0)  -->
<svg xmlns="http://www.w3.org/2000/svg" xmlns:xlink="http://www.w3.org/1999/xlink" version="1.1" id="Layer_1" x="0px" y="0px" viewBox="0 0 948.2 948.2" style="enable-background:new 0 0 948.2 948.2;" xml:space="preserve">
<style type="text/css">
	.st0{fill:url(#SVGID_1_);stroke:#A86817;stroke-width:3;stroke-miterlimit:31.51;}
	.st1{fill:none;stroke:#231F20;stroke-width:12;stroke-miterlimit:31.51;}
	.st2{fill:none;stroke:#6D28D9;stroke-width:70.89;stroke-miterlimit:31.51;}
	.st3{fill:#252525;stroke:#252525;stroke-width:78.77;stroke-miterlimit:31.51;}
	.st4{fill:#F5F5F5;stroke:#F5F5F5;stroke-width:70.89;stroke-miterlimit:31.51;}
	.st5{fill:#069447;}
	.st6{fill:none;stroke:#E50000;stroke-width:39.38;stroke-miterlimit:31.51;}
	.st7{fill:#252525;}
</style>
<radialGradient id="SVGID_1_" cx="472.665" cy="366.5148" r="472.615" gradientTransform="matrix(1 0 0 1 1.45 107.6002)" gradientUnits="userSpaceOnUse">
	<stop offset="0.73" style="stop-color:#E1B372"/>
	<stop offset="1" style="stop-color:#F4AC53"/>
</radialGradient>
<path class="st0" d="M143.3,1.5h661.7c78.3,0,141.8,63.5,141.8,141.8v661.7c0,78.3-63.5,141.8-141.8,141.8H143.3  C65,946.7,1.5,883.3,1.5,804.9V143.3C1.5,65,65,1.5,143.3,1.5z"/>
<line class="st1" x1="1.5" y1="671" x2="946.7" y2="671"/>
<line class="st1" x1="277.2" y1="946.7" x2="277.2" y2="1.5"/>
<line class="st1" x1="671" y1="946.7" x2="671" y2="1.5"/>
<line class="st1" x1="1.5" y1="279.2" x2="946.7" y2="279.2"/>
<circle class="st2" cx="671" cy="279.2" r="157.5"/>
<circle class="st3" cx="277.2" cy="671" r="157.5"/>
<circle class="st4" cx="671" cy="671" r="157.5"/>
<path class="st5" d="M275,470.3c-43.5,0-77.1-11.7-100.7-35s-35.4-56-35.4-98H213c0,21.1,5.5,37.5,16.6,49.2  c11.1,11.7,26.6,17.5,46.8,17.5c20.3,0,36-5.8,47-17.4s16.6-28,16.6-49.3V90.5h71.2v246.9c0,42.2-12,74.9-36,98.1  C351.1,458.8,317.7,470.4,275,470.3z M252.4,154.6V90.5H378v64.1L252.4,154.6z"/>
<path class="st6" d="M584.4,584.4l173.3,173.3 M757.7,584.4L584.4,757.7"/>
<circle class="st7" cx="671" cy="279.2" r="25.6"/>
</svg>
